# Blender v2.78 (sub 0) OBJ File: 'DangoCube.blend'
# www.blender.org
mtllib DangoCube.mtl
o Cube.002
v 4.275819 -0.114102 -0.114102
v 4.275819 0.114102 -0.114102
v 4.275819 -0.114102 0.114102
v 4.275819 0.114102 0.114102
v 2.275819 -1.000000 -1.000000
v 2.275819 1.000000 -0.345547
v 2.275819 -1.000000 1.000000
v 2.275819 1.000000 0.345547
vn 1.0000 0.0000 0.0000
vn 0.2725 0.2992 0.9144
vn -1.0000 0.0000 0.0000
vn 0.2725 0.2992 -0.9144
vn 0.4050 -0.9143 0.0000
vn 0.4050 0.9143 0.0000
vn 0.1150 0.0000 0.9934
vn 0.1150 0.0000 -0.9934
usemtl Material
s off
f 2//1 3//1 1//1
f 3//2 8//2 7//2
f 8//3 5//3 7//3
f 6//4 1//4 5//4
f 7//5 1//5 3//5
f 4//6 6//6 8//6
f 2//1 4//1 3//1
f 3//7 4//7 8//7
f 8//3 6//3 5//3
f 6//8 2//8 1//8
f 7//5 5//5 1//5
f 4//6 2//6 6//6
o Cube.001
v 0.928228 2.234863 -0.928228
v 0.079248 4.091320 -0.079248
v 0.928228 2.234863 0.928228
v 0.079248 4.091320 0.079248
v -0.928228 2.234863 -0.472832
v -0.079248 4.091320 -0.079248
v -0.928228 2.234863 0.472832
v -0.079248 4.091320 0.079248
vn 0.9094 0.4159 0.0000
vn -0.2259 0.3178 0.9209
vn -0.9094 0.4159 0.0000
vn -0.2259 0.3178 -0.9209
vn 0.0000 -1.0000 0.0000
vn 0.0000 1.0000 0.0000
vn 0.0000 0.2074 0.9783
vn 0.0000 0.2074 -0.9783
usemtl DangoSpecMaterial
s off
f 10//9 11//9 9//9
f 12//10 15//10 11//10
f 16//11 13//11 15//11
f 13//12 10//12 9//12
f 15//13 9//13 11//13
f 12//14 14//14 16//14
f 10//9 12//9 11//9
f 12//15 16//15 15//15
f 16//11 14//11 13//11
f 13//16 14//16 10//16
f 15//13 13//13 9//13
f 12//14 10//14 14//14
o Cube
v -1.000000 -1.000000 1.000000
v -1.000000 -1.000000 -1.000000
v 1.000000 -1.000000 -1.000000
v 1.000000 -1.000000 1.000000
v -1.000000 1.000000 0.999999
v -0.999999 1.000000 -1.000001
v 1.000000 1.000000 -1.000000
v 1.000000 1.000000 1.000000
vt 0.6108 0.5031
vt 0.3704 0.7435
vt 0.3704 0.5031
vt 0.3704 0.0224
vt 0.6108 0.2628
vt 0.3704 0.2628
vt 0.8512 0.5031
vt 0.6108 0.7435
vt 0.3704 0.9839
vt 0.1301 0.7435
vt 0.1301 0.5031
vt 0.6108 0.0224
vt 0.8512 0.7435
vt 0.6108 0.9839
vn 0.0000 -1.0000 0.0000
vn 0.0000 1.0000 -0.0000
vn -1.0000 -0.0000 0.0000
vn 0.0000 -0.0000 -1.0000
vn 1.0000 -0.0000 0.0000
vn -0.0000 0.0000 1.0000
usemtl DangoMaterial
s off
f 18/1/17 20/2/17 17/3/17
f 24/4/18 22/5/18 21/6/18
f 21/6/19 18/1/19 17/3/19
f 22/7/20 19/8/20 18/1/20
f 19/8/21 24/9/21 20/2/21
f 17/3/22 24/10/22 21/11/22
f 18/1/17 19/8/17 20/2/17
f 24/4/18 23/12/18 22/5/18
f 21/6/19 22/5/19 18/1/19
f 22/7/20 23/13/20 19/8/20
f 19/8/21 23/14/21 24/9/21
f 17/3/22 20/2/22 24/10/22
