# Blender v2.78 (sub 0) OBJ File: 'DangoCube.blend'
# www.blender.org
mtllib DangoCube.mtl
o Cube
v -1.000000 -1.000000 1.000000
v -1.000000 -1.000000 -1.000000
v 1.000000 -1.000000 -1.000000
v 1.000000 -1.000000 1.000000
v -1.000000 1.000000 0.999999
v -0.999999 1.000000 -1.000001
v 1.000000 1.000000 -1.000000
v 1.000000 1.000000 1.000000
vt 0.6108 0.5031
vt 0.3704 0.7435
vt 0.3704 0.5031
vt 0.3704 0.0224
vt 0.6108 0.2628
vt 0.3704 0.2628
vt 0.8512 0.5031
vt 0.6108 0.7435
vt 0.3704 0.9839
vt 0.1301 0.7435
vt 0.1301 0.5031
vt 0.6108 0.0224
vt 0.8512 0.7435
vt 0.6108 0.9839
vn 0.0000 -1.0000 0.0000
vn 0.0000 1.0000 -0.0000
vn 0.0000 -0.0000 -1.0000
vn 1.0000 -0.0000 0.0000
vn -0.0000 0.0000 1.0000
vn -1.0000 -0.0000 0.0000
usemtl DangoMaterial
s off
f 2/1/1 4/2/1 1/3/1
f 8/4/2 6/5/2 5/6/2
f 6/7/3 3/8/3 2/1/3
f 3/8/4 8/9/4 4/2/4
f 1/3/5 8/10/5 5/11/5
f 2/1/1 3/8/1 4/2/1
f 8/4/2 7/12/2 6/5/2
f 6/7/3 7/13/3 3/8/3
f 3/8/4 7/14/4 8/9/4
f 1/3/5 4/2/5 8/10/5
usemtl DangoSpecMaterial
f 5/6/6 2/1/6 1/3/6
f 5/6/6 6/5/6 2/1/6
